<?xml version="1.0" standalone="no"?>
<!DOCTYPE svg PUBLIC "-//W3C//DTD SVG 20010904//EN"
 "http://www.w3.org/TR/2001/REC-SVG-20010904/DTD/svg10.dtd">
<svg version="1.0" xmlns="http://www.w3.org/2000/svg"
 width="351.000000pt" height="351.000000pt" viewBox="0 0 351.000000 351.000000"
 preserveAspectRatio="xMidYMid meet">
<metadata>
Created by potrace 1.11, written by Peter Selinger 2001-2013
</metadata>
<g transform="translate(0.000000,351.000000) scale(0.100000,-0.100000)"
fill="#000000" stroke="none">
<path d="M0 1755 l0 -1755 1755 0 1755 0 0 1755 0 1755 -1755 0 -1755 0 0
-1755z m2115 1361 c391 -42 629 -156 765 -367 57 -88 81 -172 87 -299 6 -121
-14 -214 -67 -320 -39 -76 -144 -188 -226 -240 -35 -22 -64 -42 -64 -43 0 -2
47 -27 105 -57 228 -116 350 -292 378 -542 9 -83 8 -111 -7 -189 -54 -285
-249 -466 -603 -559 -202 -53 -205 -53 -1150 -57 l-883 -4 0 1339 c0 736 3
1342 7 1345 3 4 349 7 767 7 584 0 791 -4 891 -14z"/>
<path d="M1340 2295 l0 -196 283 3 282 3 52 28 c58 30 76 52 92 114 24 90 -19
174 -109 217 -42 19 -65 21 -322 24 l-278 4 0 -197z"/>
<path d="M1345 1488 c-3 -7 -4 -103 -3 -213 l3 -200 305 0 c343 0 395 7 463
59 52 39 70 88 65 173 -4 70 -23 103 -78 140 -61 42 -92 46 -427 50 -266 4
-324 2 -328 -9z"/>
</g>
</svg>
